<svg xmlns="http://www.w3.org/2000/svg" xmlns:xlink="http://www.w3.org/1999/xlink" width="533" height="595" viewBox="0 0 533 595">
  <defs>
    <filter id="prefix__fireandflame-a" width="140.2%" height="132.4%" x="-20.1%" y="-16.2%" filterUnits="objectBoundingBox">
      <feOffset dx="6" dy="6" in="SourceAlpha" result="shadowOffsetOuter1"/>
      <feGaussianBlur in="shadowOffsetOuter1" result="shadowBlurOuter1" stdDeviation="18"/>
      <feColorMatrix in="shadowBlurOuter1" result="shadowMatrixOuter1" values="0 0 0 0 0 0 0 0 0 0 0 0 0 0 0 0 0 0 0.3 0"/>
      <feMerge>
        <feMergeNode in="shadowMatrixOuter1"/>
        <feMergeNode in="SourceGraphic"/>
      </feMerge>
    </filter>
    <path id="prefix__fireandflame-b" d="M201.509 0L0 89.83v158.025C0 299 21.852 367.42 85.26 425.976 159.965 495.046 201.502 500 201.502 500s41.525-4.953 116.29-74.024C381.137 367.421 403 299.001 403 247.855V89.83L201.509 0z"/>
  </defs>
  <g fill="none" fill-rule="evenodd" filter="url(#prefix__fireandflame-a)" transform="translate(65 33)">
    <mask id="prefix__fireandflame-c" fill="#fff">
      <use xlink:href="#prefix__fireandflame-b"/>
    </mask>
    <use fill="#494949" fill-rule="nonzero" xlink:href="#prefix__fireandflame-b"/>
    <g fill-rule="nonzero" mask="url(#prefix__fireandflame-c)">
      <path fill="#FE9100" d="M281.509 160.388c-7.214-7.883-18.428-18.522-23.199 5.501-1.622 8.168-5.413 14.465-8.661 19.535-3.502-17.737-14.036-36.096-23.962-48.475-3.714-4.63-16.893-23.041-19.425-53.84-.378-4.597-5.833-6.756-9.245-3.656-32.607 29.628-50.505 70.376-51.17 116.25 0 0-13.577-11.455-20.953-32.767-1.987-5.739-9.673-6.833-13.008-1.759a51.45 51.45 0 0 0-1.77 2.897c-25.157 44.526-37.26 98.596-26.071 148.9C102.75 397.218 226.49 420.77 292 367.82c64.093-51.804 43.72-148.223-10.491-207.433z"/>
      <path fill="#FCD703" d="M261.695 210.884c-5.324-5.825-13.601-13.688-17.123 4.066-1.197 6.035-3.996 10.69-6.392 14.436-2.584-13.108-10.36-26.675-17.686-35.822-2.741-3.423-12.468-17.027-14.337-39.79-.28-3.397-4.305-4.99-6.824-2.7-24.067 21.894-37.278 52.008-37.767 85.907 0 0-10.022-8.465-15.466-24.214-1.466-4.24-7.14-5.05-9.601-1.3-.473.72-.911 1.442-1.306 2.142-18.57 32.903-27.502 72.86-19.245 110.035 13.808 62.256 105.14 79.661 153.492 40.532 47.306-38.282 32.268-109.535-7.745-153.292z"/>
      <path fill="#F2937E" d="M258.82 312.344c0-18.483-9.189-33.526-32.359-49.039-14.568-9.754-27.914-25.915-32.76-42.456-.89-3.04-4.793-3.856-6.825-1.424-21.957 26.28 2.011 63.086-7.418 73.275-5.756 6.22-14.478-4.25-20.002-20.37-1.189-3.468-6.103-3.5-7.324-.043-5.013 14.195-7.888 28.656-7.888 40.056 0 34.052 25.65 61.657 57.289 61.657 31.64 0 57.288-27.604 57.288-61.656z"/>
      <path fill="#E58B77" d="M144.96 113.075c14.628-11.91 14.596-34.192 0-46.075-14.63 11.91-14.597 34.192 0 46.075z"/>
      <path fill="#FCD703" d="M336.24 214.075c14.629-11.91 14.596-34.192 0-46.075-6.686 5.443-14.596 34.192 0 46.075z"/>
      <path fill="#EFCC02" d="M69.802 200.733c10.543-8.584 10.52-24.642 0-33.207-4.818 3.923-10.52 24.643 0 33.207z"/>
      <path fill="#FF7B49" d="M247.821 128.64c12.5-5.346 16.905-20.789 9.153-31.922-12.5 5.345-16.904 20.79-9.153 31.921z"/>
    </g>
    <g mask="url(#prefix__fireandflame-c)">
      <g transform="translate(103.664 326)">
        <path fill="#A28577" fill-rule="nonzero" d="M30.31 79.607C16.42 82.06 3.177 72.767.728 58.849c-2.45-13.92 6.824-27.192 20.712-29.646l93.552-22.599c12.9-3.116 25.883 4.815 29 17.715.117.49.22.983.307 1.479 2.493 14.168-6.456 27.833-20.44 31.21l-93.549 22.6z"/>
        <rect width="64" height="6" x="64.336" y="22" fill="#7B6357" rx="3" transform="rotate(-13 96.336 25)"/>
        <rect width="64" height="6" x="27.336" y="53" fill="#7B6357" rx="3" transform="rotate(-13 59.336 56)"/>
        <rect width="33" height="6" x="13.336" y="39" fill="#896F62" rx="3" transform="rotate(-13 29.836 42)"/>
        <path fill="#DBB19C" fill-rule="nonzero" d="M171.55 80c14.242 0 25.786-11.64 25.786-26s-11.544-26-25.785-26H84.336c-14.359 0-26 11.64-26 26s11.641 26 26 26h87.215z"/>
        <rect width="64" height="6" x="74.336" y="39" fill="#A68575" rx="3"/>
        <rect width="43" height="6" x="131.336" y="61" fill="#A68575" rx="3"/>
        <rect width="21" height="6" x="156.336" y="39" fill="#C49E8C" rx="3"/>
        <rect width="33" height="6" x="84.336" y="61" fill="#C49E8C" rx="3"/>
      </g>
    </g>
    <g fill-rule="nonzero" mask="url(#prefix__fireandflame-c)">
      <path fill="#FCD703" d="M277 130c-3.31 0-6-2.691-6-6s2.691-6 6-6 6 2.691 6 6-2.691 6-6 6z"/>
      <path fill="#F2937E" d="M49 238c-3.31 0-6-2.691-6-6s2.691-6 6-6 6 2.691 6 6-2.691 6-6 6z"/>
      <path fill="#FCD703" d="M176 66c-3.31 0-6-2.691-6-6s2.691-6 6-6 6 2.691 6 6-2.691 6-6 6z"/>
      <path fill="#FE9100" d="M352 262c-3.31 0-6-2.691-6-6s2.691-6 6-6 6 2.691 6 6-2.691 6-6 6z"/>
    </g>
    <path stroke="#00C39A" stroke-width="20" d="M201.509 10.949L393 96.32v151.535c0 49.1-21.264 114.637-81.992 170.776-64.086 59.205-102.451 69.703-109.507 71.214-7.058-1.512-45.425-12.014-109.457-71.215C31.252 362.49 10 296.953 10 247.855h0V96.32l191.509-85.372z" mask="url(#prefix__fireandflame-c)"/>
    <path fill="#000" fill-opacity=".05" fill-rule="nonzero" d="M201.509 0l-.006 500s41.525-4.953 116.29-74.024C381.137 367.421 403 299.001 403 247.855V89.83L201.509 0z" mask="url(#prefix__fireandflame-c)"/>
  </g>
</svg>
