<svg xmlns="http://www.w3.org/2000/svg" viewBox="0 0 470 220">
    <defs>
        <clipPath id="emails_svg__clip-path">
            <path class="emails_svg__cls-1" d="M0 0h470v220H0z"/>
        </clipPath>
        <clipPath id="emails_svg__clip-path-2">
            <path class="emails_svg__cls-1" d="M21.36-56h427.29v209.35H21.36z"/>
        </clipPath>
        <clipPath id="emails_svg__clip-path-3">
            <rect class="emails_svg__cls-1" x="179.37" y="49.72" width="111.25" height="72" rx="1.21"/>
        </clipPath>
        <clipPath id="emails_svg__clip-path-4">
            <path class="emails_svg__cls-1" d="M211.85 3.84h250.07V475H211.85z"/>
        </clipPath>
        <style>
            .emails_svg__cls-1{fill:none}.emails_svg__cls-6{fill:#f2f2f2}.emails_svg__cls-7{fill:#e6e6e6}.emails_svg__cls-8{fill:#ccc}.emails_svg__cls-11,.emails_svg__cls-19,.emails_svg__cls-22{fill:#fff}.emails_svg__cls-12{fill:#c7b299}.emails_svg__cls-13{fill:#ead7c2}.emails_svg__cls-14{fill:#b3b3b3}.emails_svg__cls-15{fill:#4d4d4d}.emails_svg__cls-16{fill:#333}.emails_svg__cls-18{fill:#00c39a}.emails_svg__cls-19{opacity:.7}.emails_svg__cls-20{fill:#d1e8e9}.emails_svg__cls-21,.emails_svg__cls-24{fill:#05668e}.emails_svg__cls-22,.emails_svg__cls-23,.emails_svg__cls-24{fill-rule:evenodd}.emails_svg__cls-23{fill:#b2d9db}.emails_svg__cls-31{fill:#6194b0}.emails_svg__cls-35{fill:#f79470}.emails_svg__cls-38{fill:#05668c}.emails_svg__cls-39{fill:#08243b}
        </style>
    </defs>
    <g style="isolation:isolate">
        <g clip-path="url(#emails_svg__clip-path)" id="emails_svg__Ebene_1" data-name="Ebene 1">
            <path fill="#99ccd3" d="M-15-19h520v250.57H-15z"/>
            <path fill="#d9eefd" d="M21.36-56h427.29v209.35H21.36z"/>
            <path class="emails_svg__cls-6" d="M152.63 24.65V19.5h-41.18v5.15h-9.44v121.84h60.06V24.65h-9.44zM268.46 19.5v-3.43h-1.71v-3.43h-8.58v3.43h-1.72v3.43h-1.72v128.71h15.45V19.5h-1.72z"/>
            <path class="emails_svg__cls-7" d="M71.12 117.32h29.17v29.17H71.12z"/>
            <path class="emails_svg__cls-8" d="M126.03 69.27v-5.15h-25.74v5.15h-6.86v17.16H81.42v60.06h51.48V69.27h-6.87z"/>
            <path class="emails_svg__cls-7" d="M337.1 62.41v-6.87h-5.15v-8.58h-39.46v8.58h-5.15v6.87h-13.73v82.36h77.22V62.41H337.1z"/>
            <path class="emails_svg__cls-8" d="M266.75 107.02h51.48v41.18h-51.48z"/>
            <path class="emails_svg__cls-6" d="M426.34 64.12v6.87h-12.02v77.22h27.46V64.12h-15.44z"/>
            <path class="emails_svg__cls-7" d="M410.89 12.64V9.21h-5.15V7.49h-5.14V5.78h-10.3v1.71h-5.15V5.78H380V2.35h-5.14v3.43h-8.58v3.43h-1.72v3.43h-3.43v132.13h53.19V12.64h-3.43z"/>
            <g clip-path="url(#emails_svg__clip-path-2)" opacity=".4">
                <path class="emails_svg__cls-11" transform="rotate(30 158.525 30.623)" d="M135-131.78h47.05v324.8H135z"/>
                <path class="emails_svg__cls-11" transform="rotate(30 187.686 51.15)" d="M181.55-111.25h12.27v324.8h-12.27z"/>
                <path class="emails_svg__cls-11" transform="rotate(30 209.788 59.147)" d="M207.24-103.25h5.09v324.8h-5.09z"/>
                <path class="emails_svg__cls-11" transform="rotate(30 39.271 -29.143)" d="M23.82-191.54h30.89v324.8H23.82z"/>
                <path class="emails_svg__cls-11" transform="rotate(30 62.298 -15.833)" d="M56.3-178.24h12.01v324.8H56.3z"/>
                <path class="emails_svg__cls-11" transform="rotate(30 337.007 46.08)" d="M301.35-140.21h71.33v372.58h-71.33z"/>
                <path class="emails_svg__cls-11" transform="rotate(30 378.952 70.28)" d="M372.99-116h11.91v372.58h-11.91z"/>
            </g>
            <path class="emails_svg__cls-12" d="M24.79-56h8.58v209.35h-8.58z"/>
            <path class="emails_svg__cls-13" transform="rotate(90 235 149.06)" d="M230.71-64.58h8.58v427.29h-8.58z"/>
            <path class="emails_svg__cls-13" d="M440.06-56h8.58v209.35h-8.58zM21.36-56h8.58v209.35h-8.58z"/>
            <path class="emails_svg__cls-14" d="M53.18 373.98h-8.34l-3.68-154.25h15.7l-3.68 154.25z"/>
            <path class="emails_svg__cls-8" d="M467.62 415.91h8.1l-28.27-197.3H432.2l35.42 197.3zM2.38 415.91h-8.1l28.27-197.3H37.8L2.38 415.91z"/>
            <path class="emails_svg__cls-14" d="M413.82 373.98h8.35l3.67-154.25h-15.69l3.67 154.25z"/>
            <path class="emails_svg__cls-6" d="M6.4 180.16l-61.54 33.36h580.28l-66.01-33.36H6.4z"/>
            <path class="emails_svg__cls-7" d="M-55.14 213.54h580.28v8.7H-55.14z"/>
            <path class="emails_svg__cls-15" d="M331.44 160.68H138.56a4.28 4.28 0 01-4.28-4.28v-16.08h201.44v16.08a4.28 4.28 0 01-4.28 4.28"/>
            <path class="emails_svg__cls-16" d="M335.72 140.65H134.28V26.89a4 4 0 014-3.95h193.48a4 4 0 014 3.95zM267.8 178.48h-11.73v-17.8h-41.34v17.8h-12.48a6 6 0 00-6 6h77.47a6 6 0 00-6-6"/>
            <path class="emails_svg__cls-6" d="M239.08 150.76a4.15 4.15 0 11-4.15-4.15 4.15 4.15 0 014.15 4.15"/>
            <path fill="#f6f8d7" d="M141.92 31.22H327.2v101.11H141.92z"/>
            <path class="emails_svg__cls-11" d="M326.84 133.61a1.12 1.12 0 001.17-1V38H141.94v94.56a1.11 1.11 0 001.17 1z"/>
            <path class="emails_svg__cls-18" d="M174.84 133.58V38.43h-32.9v94.11a1 1 0 001 1z"/>
            <rect class="emails_svg__cls-19" x="146.57" y="49.92" width="23.64" height="6.17" rx="3.08"/>
            <path class="emails_svg__cls-19" d="M146.57 62.59h23.64v1.03h-23.64zM146.57 68.59h23.64v1.03h-23.64zM146.57 74.59h23.64v1.03h-23.64zM146.57 129.07h23.64v1.03h-23.64z"/>
            <path class="emails_svg__cls-6" d="M174.94 43.11h153.17v17.76H174.94z"/>
            <path class="emails_svg__cls-20" d="M174.94 60.87h153.17v8.36H174.94zM174.94 77.59h153.17v8.36H174.94zM174.94 94.3h153.17v8.36H174.94z"/>
            <path class="emails_svg__cls-6" d="M174.94 69.23h153.17v8.36H174.94zM174.94 85.94h153.17v8.36H174.94z"/>
            <path class="emails_svg__cls-21" d="M314.13 63.76a.48.48 0 00-.32-.13h-6.22a.51.51 0 00-.35.15l3.49 1.39z"/>
            <path class="emails_svg__cls-21" d="M310.73 65.86l-3.63-1.44v2.73a.5.5 0 00.49.52h6.22a.5.5 0 00.49-.52v-2.76zM314.13 72a.48.48 0 00-.32-.13h-6.22a.48.48 0 00-.35.16l3.49 1.38z"/>
            <path class="emails_svg__cls-21" d="M310.73 74.08l-3.63-1.44v2.73a.5.5 0 00.49.52h6.22a.5.5 0 00.49-.52v-2.76zM314.13 80.21a.48.48 0 00-.32-.13h-6.22a.51.51 0 00-.35.15l3.49 1.38z"/>
            <path class="emails_svg__cls-21" d="M310.73 82.31l-3.63-1.44v2.73a.5.5 0 00.49.51h6.22a.5.5 0 00.49-.51v-2.77zM314.13 88.43a.48.48 0 00-.32-.13h-6.22a.51.51 0 00-.35.15l3.49 1.39z"/>
            <path class="emails_svg__cls-21" d="M310.73 90.53l-3.63-1.44v2.73a.5.5 0 00.49.52h6.22a.5.5 0 00.49-.52v-2.76zM314.13 96.65a.53.53 0 00-.32-.12h-6.22a.47.47 0 00-.35.15l3.49 1.38z"/>
            <path class="emails_svg__cls-21" d="M310.73 98.76l-3.63-1.44v2.73a.5.5 0 00.49.51h6.22a.5.5 0 00.49-.51v-2.77z"/>
            <path class="emails_svg__cls-22" d="M141.94 30.84c0-.47.29-.86.65-.86h184.77c.36 0 .65.39.65.86v5.31H141.94z"/>
            <path class="emails_svg__cls-23" d="M196.21 36.4l2.11-4.57a.59.59 0 01.5-.33h37.47a.58.58 0 01.5.32l2.1 4.56"/>
            <path class="emails_svg__cls-24" d="M156.37 36.4l2.11-4.57a.61.61 0 01.5-.33h37.48a.58.58 0 01.5.32l2.1 4.56"/>
            <circle class="emails_svg__cls-1" cx="145.13" cy="33.35" r="1.06"/>
            <circle cx="145.13" cy="33.35" r="1.06" fill="#ff1d25"/>
            <circle class="emails_svg__cls-1" cx="148.67" cy="33.35" r="1.06"/>
            <circle cx="148.67" cy="33.35" r="1.06" fill="#ff931e"/>
            <circle class="emails_svg__cls-1" cx="152.21" cy="33.35" r="1.06"/>
            <circle cx="152.21" cy="33.35" r="1.06" fill="#7ac943"/>
            <path class="emails_svg__cls-24" d="M238.4 32.89a.21.21 0 01.21-.32h4.07a.6.6 0 01.5.32l.94 2.08a.21.21 0 01-.2.32h-4.07a.61.61 0 01-.51-.32z"/>
            <path fill="#b2d9db" d="M141.94 36.15H328v7.2H141.94z"/>
            <circle class="emails_svg__cls-21" cx="322.73" cy="38.86" r=".27"/>
            <circle class="emails_svg__cls-21" cx="322.73" cy="39.75" r=".27"/>
            <circle class="emails_svg__cls-21" cx="322.73" cy="40.63" r=".27"/>
            <path class="emails_svg__cls-22" d="M163.53 37.94c0-.42.22-.76.49-.76h154.47c.2 0 .37.25.37.57v4c0 .31-.17.57-.37.57H164c-.27 0-.49-.34-.49-.76z"/>
            <path class="emails_svg__cls-21" d="M154.16 39.06a1.2 1.2 0 011.31-.48H155.64a1.89 1.89 0 01.36.42l.37-.37v1h-1l.42-.42a1.14 1.14 0 00-.32-.26.27.27 0 00-.11 0 .94.94 0 00-1 .38.7.7 0 00-.11.23.9.9 0 000 .56A.93.93 0 00156 40l.24.08a1.2 1.2 0 01-1.5.76 1.18 1.18 0 01-.77-.78 1.15 1.15 0 010-.71 1 1 0 01.19-.29zM144.14 39.56a.13.13 0 00-.13.14.13.13 0 00.13.13h2.08a.13.13 0 00.13-.13.13.13 0 00-.13-.14z"/>
            <path class="emails_svg__cls-21" d="M144.05 39.59a.13.13 0 00.19.19l1-1a.13.13 0 00-.19-.19z"/>
            <path class="emails_svg__cls-21" d="M144.24 39.61a.13.13 0 00-.19.19l1 1a.13.13 0 10.19-.19zM151.15 39.56a.14.14 0 01.14.14.13.13 0 01-.14.13h-2.08a.13.13 0 01-.13-.13.13.13 0 01.13-.14z"/>
            <path class="emails_svg__cls-21" d="M151.24 39.59a.13.13 0 01-.19.19l-1-1a.13.13 0 01.19-.19z"/>
            <path class="emails_svg__cls-21" d="M151.05 39.61a.13.13 0 01.19.19l-1 1a.14.14 0 01-.19 0 .13.13 0 010-.19zM160.91 41h-1.46a.15.15 0 01-.15-.15v-1h-.15a.16.16 0 01-.11-.27l1-1a.14.14 0 01.21 0l1 1a.17.17 0 010 .17.16.16 0 01-.14.1h-.15v1a.15.15 0 01-.05.15zm-1.37-.24h1.28v-1.1h.18l-.81-.76-.81.76h.17zm1.61-.95zm-1.94 0z"/>
            <path class="emails_svg__cls-23" d="M154.78 36.4l2.11-4.57a.61.61 0 01.5-.33h37.48a.6.6 0 01.5.32l2.09 4.56"/>
            <path class="emails_svg__cls-24" d="M313.94 40.48l-.87.61.31-1.02-.85-.64 1.07-.02.34-1.01.36 1.01 1.06.02-.85.64.31 1.02-.88-.61z"/>
            <circle class="emails_svg__cls-21" cx="193.64" cy="33.35" r=".8"/>
            <circle class="emails_svg__cls-21" cx="235.07" cy="33.35" r=".8"/>
            <rect x="181.79" y="52.14" width="111.25" height="72" rx="1.21" opacity=".1"/>
            <rect class="emails_svg__cls-11" x="179.37" y="49.72" width="111.25" height="72" rx="1.21"/>
            <g clip-path="url(#emails_svg__clip-path-3)">
                <path class="emails_svg__cls-18" d="M178.82 49.21h112.44v10.88H178.82z"/>
            </g>
            <path class="emails_svg__cls-11" d="M288.78 53.28a1.61 1.61 0 11-1.61-1.69 1.66 1.66 0 011.61 1.69"/>
            <path class="emails_svg__cls-31" d="M261.21 75.11a3.72 3.72 0 00-2.52-1h-49.13a3.74 3.74 0 00-2.75 1.21l27.55 10.92z"/>
            <path class="emails_svg__cls-31" d="M234.39 91.73l-28.71-11.39v21.59a4 4 0 003.88 4.07h49.13a4 4 0 003.88-4.07V80.07z"/>
            <circle class="emails_svg__cls-18" cx="263.73" cy="75.74" r="6.64"/>
            <path class="emails_svg__cls-11" d="M264.71 79.15h-1.42v-5.47l-1.69.52v-1.15l3-1.06h.15z"/>
            <g opacity=".3">
                <path class="emails_svg__cls-11" d="M206.39 30.28l-64.5 65.59V59.25l27.88-28.97h36.62zM227.7 30.28l-85.81 88.54v-16.39l71.05-72.15h14.76z"/>
            </g>
            <path class="emails_svg__cls-15" d="M141.17 200.82h187.66l-14.1-12.68H155.27l-14.1 12.68z"/>
            <path class="emails_svg__cls-11" d="M149.05 198.5l8.95-8.05h154l8.95 8.05h-171.9z"/>
            <path class="emails_svg__cls-15" d="M235.37 199.84v-10.73h-.74v10.73M225.66 199.88l1.25-10.73-.73-.08-1.25 10.73M215.95 199.93l2.49-10.74-.71-.16-2.49 10.73M206.24 199.96l3.74-10.73-.69-.24-3.74 10.73M196.52 200l4.99-10.73-.66-.31-4.99 10.73M186.8 200.03l6.24-10.73-.63-.37-6.24 10.73M177.08 200.05l7.49-10.73-.6-.42-7.48 10.73M167.37 200.07l8.72-10.73-.56-.46-8.73 10.73M157.65 200.09l9.97-10.73-.53-.5-9.98 10.73M243.09 189.15l1.25 10.73.72-.08-1.24-10.73M251.56 189.19l2.49 10.74.71-.17-2.49-10.73M260.02 189.23l3.74 10.73.69-.24-3.74-10.73M268.49 189.27l4.99 10.73.66-.31-4.99-10.73M276.96 189.3l6.24 10.73.63-.37-6.24-10.73M285.43 189.32l7.49 10.73.59-.42-7.48-10.73M293.9 189.34l8.73 10.73.57-.46-8.73-10.73M302.38 189.36l9.97 10.73.54-.5-9.98-10.73"/>
            <path class="emails_svg__cls-15" d="M151.22 194.84h168.36v-.73H151.22"/>
            <path class="emails_svg__cls-16" d="M141.17 200.82h187.66v1.81H141.17z"/>
            <path d="M97.52 101.32A14.32 14.32 0 1183.2 87a14.32 14.32 0 0114.32 14.32" fill="#f0f3bd"/>
            <path class="emails_svg__cls-12" transform="rotate(-45.01 41.317 142.72)" d="M37.9 100.69h6.86v84.09H37.9z"/>
            <path class="emails_svg__cls-12" d="M66.63 170.13h6.86v20.72h-6.86z"/>
            <path class="emails_svg__cls-12" d="M36.53 185.39h67.2V192h-67.2z"/>
            <path class="emails_svg__cls-12" transform="rotate(-45 34.404 100.66)" d="M2.15 97.23h64.51v6.86H2.15z"/>
            <path class="emails_svg__cls-15" d="M78.59 78.37L70.23 70a13 13 0 00-18.42 18.43l8.36 8.36a28.49 28.49 0 007 28.86l40.29-40.3a28.51 28.51 0 00-28.86-7M11.42 118.33a5.32 5.32 0 105.32-5.33 5.32 5.32 0 00-5.32 5.31"/>
            <g clip-path="url(#emails_svg__clip-path-4)">
                <path class="emails_svg__cls-35" d="M371.42 88.81s19.86-4.08 11.81-30.18c-8.42-9.22-15.84 7.84-15.84 7.84zM309.45 90.2s-19.86-4.07-11.81-30.2c8.42-9.23 15.84 7.84 15.84 7.84zM375.26 151.92s-17.71-3-19-52c-18.76-11.5-36.38.32-36.38.32s13.48 38.3-16.14 53.31c1.77 26.6 31.91 22.69 31.91 22.69s26.08.88 39.65-24.36"/>
                <path d="M356.37 101.8c-18.76-11.49-36.38.33-36.38.33a59.8 59.8 0 011.26 29.67c13.78-.31 25.93 2.79 38.7-2.63-.88-6-3.35-18.71-3.58-27.37" fill="#ed6940"/>
                <path class="emails_svg__cls-35" d="M367.88 61.8s6.37-19.33.1-35.67S315.5 14 308.3 23s.13 81.71 3.8 90.33 34.92 18.49 46.19 4.71c10-9.65 16.69-28.21 9.59-56.25"/>
                <path d="M353.48 111.23c-8.25 2.2-17.52-1.25-26.81-2.34-6.11 1.64-7.62-5.43-11.46-12.07-2.13-3.7-9.14-17-10.73-22.19-7.63-24.67-1-24.29-3.45-28.56-3.89-6.74-10.36-22.38-6.09-33.87 8.29 6 40.14-6.07 57.43-8.2 15.41-2.36 25.94 22.66 25.94 22.66s14 12.62 11.95 23.93c-8.64 9.61-13.62 30.81-13.62 30.81l-15.88 24.54a12.5 12.5 0 01-7.28 5.29" fill="#4a263d"/>
                <path class="emails_svg__cls-38" d="M398.56 415.25c.85 1.24-103.78 16.19-122.87-.83-.72-17.24-1.28-47.93-2.29-81.78-.76-25.55-1.77-52.89-3.28-77.61-2.33-38-2.73-74.71-8.34-84.28 4.07-8.14 19.33-18.8 40.57-23.8 17.3-4.07 39.22.35 59.29-.32 16.17-.54 31.75 8.4 45.64 18.31a329.24 329.24 0 01-5 75.55c-2.05 5.59-4.07 42.48-5.14 80.95-1.23 44-1.22 90 1.4 93.81"/>
                <path class="emails_svg__cls-38" d="M407.35 165.05s25.43 29.6 32.66 131.48c2.25 31.66 2.85 70.34.57 117.32-9.65-6.45-24-3.59-33.72 3.06a12.36 12.36 0 00-1.72 1.42c-.58-17.35-3.18-65.38-6.52-111-3.05-41.7-6.72-81.39-10-93.81-7.06-26.57 18.75-48.46 18.75-48.46M265.25 165.35s-24.25 29.3-31.49 131.18c-2.25 31.67-2.85 70.34-.57 117.32 9.65-6.45 24-3.59 33.72 3.06a12.36 12.36 0 011.72 1.42c.58-17.35 3.19-65.38 6.52-111 3.06-41.7 6.72-81.39 10-93.81 7.06-26.57-19.92-48.16-19.92-48.16"/>
                <path class="emails_svg__cls-39" d="M408.73 169.71c-5.6 26.6-9.37 62.86-12.45 102.74M266.14 169.09c.38.17.59.58.83.9s.44.71.65 1.08c.41.72.8 1.47 1.17 2.21.75 1.5 1.44 3 2.09 4.57 1.34 3.07 2.55 6.19 3.66 9.35a163.6 163.6 0 015.58 19.26 135.08 135.08 0 013.09 19.79q.42 5 .34 10a93.56 93.56 0 01-.6 10 80 80 0 001.22-10 100.07 100.07 0 000-10.1 122.84 122.84 0 00-2.83-20 145.83 145.83 0 00-5.9-19.31c-1.22-3.14-2.54-6.24-4-9.27-.74-1.51-1.51-3-2.35-4.47-.41-.73-.84-1.46-1.3-2.16-.23-.35-.47-.7-.73-1s-.51-.71-.91-.85"/>
            </g>
        </g>
    </g>
</svg>
