<svg xmlns="http://www.w3.org/2000/svg" xmlns:xlink="http://www.w3.org/1999/xlink" width="533" height="595" viewBox="0 0 533 595">
  <defs>
    <filter id="prefix__level_9-a" width="140.2%" height="132.3%" x="-20.1%" y="-16.2%" filterUnits="objectBoundingBox">
      <feOffset dx="6" dy="6" in="SourceAlpha" result="shadowOffsetOuter1"/>
      <feGaussianBlur in="shadowOffsetOuter1" result="shadowBlurOuter1" stdDeviation="18"/>
      <feColorMatrix in="shadowBlurOuter1" result="shadowMatrixOuter1" values="0 0 0 0 0 0 0 0 0 0 0 0 0 0 0 0 0 0 0.3 0"/>
      <feMerge>
        <feMergeNode in="shadowMatrixOuter1"/>
        <feMergeNode in="SourceGraphic"/>
      </feMerge>
    </filter>
    <path id="prefix__level_9-b" d="M201.509.092L0 89.922v158.025c0 51.146 21.852 119.566 85.26 178.12 74.706 69.072 116.243 74.025 116.243 74.025s41.525-4.953 116.29-74.024C381.137 367.513 403 299.093 403 247.947V89.922L201.509.092z"/>
    <path id="prefix__level_9-d" d="M121.005 0L0 53.898v94.815c0 30.688 13.122 71.74 51.198 106.873C96.058 297.028 121.002 300 121.002 300s24.936-2.972 69.832-44.414C228.871 220.453 242 179.4 242 148.713V53.898L121.005 0z"/>
  </defs>
  <g fill="none" fill-rule="evenodd" filter="url(#prefix__level_9-a)" transform="translate(65 32.908)">
    <mask id="prefix__level_9-c" fill="#fff">
      <use xlink:href="#prefix__level_9-b"/>
    </mask>
    <use fill="#00C39A" fill-rule="nonzero" xlink:href="#prefix__level_9-b"/>
    <path fill="#000" d="M390.76 279.004L239.392 258.98l165.567-55.152a221.315 221.315 0 0 1 5.04-11.801l-175.505 51.886 171.23-157.105a272.14 272.14 0 0 1 0-10.399L223.89 232.142 357.324-78.23c-1.297-.588-2.581-1.192-3.882-1.769L209.42 225.705h-15.841L49.554-80c-1.3.577-2.588 1.181-3.885 1.769l133.433 310.373L-2.728 76.41a272.14 272.14 0 0 1 0 10.399l171.23 157.105L-7 192.027a230.018 230.018 0 0 1 5.037 11.8l165.567 55.153-151.366 20.024c-.048 3.548-.177 7.13-.442 10.762l153.466-15.04-123.017 75.24a639.42 639.42 0 0 0 5.621 9.425l125.316-70.952-87.36 126.115a562.329 562.329 0 0 0 6.881 8.633l93.3-125.44-35.615 184.541a391.05 391.05 0 0 0 8.237 6.712l42.873-187.956 42.894 188.048a351.834 351.834 0 0 0 8.243-6.685l-35.639-184.66 93.43 125.617a530.86 530.86 0 0 0 6.881-8.627L229.811 288.44l125.496 71.05a608.155 608.155 0 0 0 5.604-9.427l-123.18-75.336 153.476 15.04" mask="url(#prefix__level_9-c)" opacity=".2"/>
    <path stroke="#F5CA4F" stroke-width="20" d="M201.509 11.04L393 96.412v151.535c0 49.099-21.264 114.636-81.992 170.776-64.086 59.205-102.451 69.703-109.507 71.213-7.058-1.511-45.425-12.013-109.457-71.215C31.252 362.581 10 297.045 10 247.947h0V96.412L201.509 11.04z" mask="url(#prefix__level_9-c)"/>
    <g mask="url(#prefix__level_9-c)">
      <g transform="translate(81 100.092)">
        <mask id="prefix__level_9-e" fill="#fff">
          <use xlink:href="#prefix__level_9-d"/>
        </mask>
        <use fill="#FFDE7C" fill-rule="nonzero" xlink:href="#prefix__level_9-d"/>
        <path stroke="#F5CA4F" stroke-width="20" d="M121.005 10.947L232 60.391v88.322c0 28.64-12.529 66.809-47.949 99.525-35.91 33.147-57.879 40.269-63.05 41.57-5.17-1.301-27.14-8.423-63.022-41.572C22.522 215.52 10 177.352 10 148.713h0V60.39l111.005-49.444z" mask="url(#prefix__level_9-e)"/>
        <g mask="url(#prefix__level_9-e)">
          <g transform="translate(77 106)">
            <circle cx="43.2" cy="43.2" r="43.2" fill="#F2C133"/>
            <ellipse cx="25.5" cy="30" fill="#FFD65B" rx="10.5" ry="19" transform="rotate(24 25.5 30)"/>
          </g>
          <g transform="translate(113 281)">
            <circle cx="7.945" cy="7.945" r="7.945" fill="#FFE368"/>
            <ellipse cx="4.69" cy="5.517" fill="#FFF" opacity=".603" rx="1.931" ry="3.494" transform="rotate(24 4.69 5.517)"/>
          </g>
          <g transform="translate(113 4)">
            <circle cx="7.945" cy="7.945" r="7.945" fill="#FFE368"/>
            <ellipse cx="4.69" cy="5.517" fill="#FFF" opacity=".603" rx="1.931" ry="3.494" transform="rotate(24 4.69 5.517)"/>
          </g>
          <g transform="translate(223 55)">
            <circle cx="7.945" cy="7.945" r="7.945" fill="#FFE368"/>
            <ellipse cx="4.69" cy="5.517" fill="#FFF" opacity=".603" rx="1.931" ry="3.494" transform="rotate(24 4.69 5.517)"/>
          </g>
          <g transform="translate(2 55)">
            <circle cx="7.945" cy="7.945" r="7.945" fill="#FFE368"/>
            <ellipse cx="4.69" cy="5.517" fill="#FFF" opacity=".603" rx="1.931" ry="3.494" transform="rotate(24 4.69 5.517)"/>
          </g>
          <g transform="translate(11 185)">
            <circle cx="7.945" cy="7.945" r="7.945" fill="#FFE368"/>
            <ellipse cx="4.69" cy="5.517" fill="#FFF" opacity=".603" rx="1.931" ry="3.494" transform="rotate(24 4.69 5.517)"/>
          </g>
          <g transform="translate(214 185)">
            <circle cx="7.945" cy="7.945" r="7.945" fill="#FFE368"/>
            <ellipse cx="4.69" cy="5.517" fill="#FFF" opacity=".603" rx="1.931" ry="3.494" transform="rotate(24 4.69 5.517)"/>
          </g>
        </g>
        <g mask="url(#prefix__level_9-e)">
          <path fill="#F2C133" d="M90.872 91.336L89.769 36 50.487 53.49z"/>
          <path fill="#FFEEB9" d="M90.872 91.336L62.29 48.235 50.487 53.49z"/>
          <path fill="#F2C133" d="M98.621 202.466l-21.75 50.893L47 222.428z"/>
          <path fill="#FFEEB9" d="M98.621 202.466L55.975 231.72 47 222.428z"/>
          <path fill="#F2C133" d="M151.128 91.336L152.231 36l39.282 17.49z"/>
          <path fill="#FFEEB9" d="M151.128 91.336l28.582-43.101 11.803 5.255z"/>
          <path fill="#F2C133" d="M142.935 202.466l21.751 50.893 29.87-30.931z"/>
          <path fill="#FFEEB9" d="M142.935 202.466l42.647 29.255 8.975-9.293z"/>
          <path fill="#F2C133" d="M71 136.5L20 158v-43z"/>
          <path fill="#FFEEB9" d="M71 136.5l-51-8.58V115z"/>
          <path fill="#F2C133" d="M171 136.5l51 21.5v-43z"/>
          <path fill="#FFEEB9" d="M171 136.5l51-8.58V115z"/>
        </g>
      </g>
    </g>
    <g fill="#FFE368" mask="url(#prefix__level_9-c)">
      <path d="M321.35 87.816c-12.358 5.164-20.344 11.292-23.957 18.383-3.613 7.09-3.194 15.813 1.257 26.168 10.653-1.817 17.956-6.605 21.91-14.365 3.953-7.759 4.216-17.82.79-30.186zm58.616 158.967c-10.651-8.12-19.95-11.972-27.898-11.556-7.947.417-15.292 5.141-22.034 14.173 6.9 8.317 14.698 12.248 23.395 11.792 8.696-.456 17.542-5.259 26.537-14.409zm-353.932 0c10.651-8.12 19.95-11.972 27.898-11.556 7.947.417 15.292 5.141 22.034 14.173-6.9 8.317-14.698 12.248-23.395 11.792-8.696-.456-17.542-5.259-26.537-14.409zm48.983 132.675c1.325-13.328 4.85-22.756 10.574-28.284 5.725-5.528 14.19-7.678 25.392-6.449 1.377 10.719-1.066 19.103-7.33 25.152-6.265 6.05-15.81 9.243-28.636 9.581zm252.966 0c-1.325-13.328-4.85-22.756-10.574-28.284-5.725-5.528-14.19-7.678-25.392-6.449-1.377 10.719 1.066 19.103 7.33 25.152 6.265 6.05 15.81 9.243 28.636 9.581zM77.65 87.816c12.358 5.164 20.344 11.292 23.957 18.383 3.613 7.09 3.194 15.813-1.257 26.168-10.653-1.817-17.956-6.605-21.91-14.365-3.953-7.759-4.216-17.82-.79-30.186zM202 463.092c-8.667-10.212-13-19.297-13-27.255 0-7.958 4.333-15.54 13-22.745 8.667 6.455 13 14.037 13 22.745s-4.333 17.793-13 27.255zm0-424c8.667 10.211 13 19.296 13 27.254 0 7.959-4.333 15.54-13 22.746-8.667-6.456-13-14.037-13-22.746 0-8.708 4.333-17.793 13-27.254z"/>
    </g>
    <path fill="#000" fill-rule="nonzero" d="M201.509.092l-.006 500s41.525-4.953 116.29-74.024C381.137 367.513 403 299.093 403 247.947V89.922L201.509.092z" mask="url(#prefix__level_9-c)" opacity=".1"/>
  </g>
</svg>
